<mxfile host="app.diagrams.net" modified="2023-02-16T11:59:16.798Z" agent="5.0 (Windows NT 10.0; Win64; x64) AppleWebKit/537.36 (KHTML, like Gecko) Chrome/110.0.0.0 Safari/537.36" etag="EiBWESKG083-ZCBQOv0C" version="20.8.20" type="github">
  <diagram name="Page-1" id="5f0bae14-7c28-e335-631c-24af17079c00">
    <mxGraphModel dx="794" dy="509" grid="1" gridSize="10" guides="1" tooltips="1" connect="1" arrows="1" fold="1" page="1" pageScale="1" pageWidth="1100" pageHeight="850" background="none" math="0" shadow="0">
      <root>
        <mxCell id="0" />
        <mxCell id="1" parent="0" />
        <mxCell id="BwKcDBISeO8rM-5g9kwS-1" value="bavv-gi-op-terraform-vmware-configurarcluster" style="shape=module;align=left;spacingLeft=20;align=center;verticalAlign=top;" parent="1" vertex="1">
          <mxGeometry x="150" y="40" width="667" height="230" as="geometry" />
        </mxCell>
        <mxCell id="awrq8H0JJblZVTlvvqXh-1" value="addon" style="shape=folder;fontStyle=1;spacingTop=10;tabWidth=40;tabHeight=14;tabPosition=left;html=1;verticalAlign=top;" vertex="1" parent="1">
          <mxGeometry x="178" y="67" width="625" height="183" as="geometry" />
        </mxCell>
        <mxCell id="awrq8H0JJblZVTlvvqXh-2" value="module-host-group" style="shape=folder;fontStyle=1;spacingTop=10;tabWidth=40;tabHeight=14;tabPosition=left;html=1;" vertex="1" parent="1">
          <mxGeometry x="199" y="107" width="134" height="50" as="geometry" />
        </mxCell>
        <mxCell id="awrq8H0JJblZVTlvvqXh-4" value="module-affinity-rule" style="shape=folder;fontStyle=1;spacingTop=10;tabWidth=40;tabHeight=14;tabPosition=left;html=1;" vertex="1" parent="1">
          <mxGeometry x="350" y="107" width="134" height="50" as="geometry" />
        </mxCell>
        <mxCell id="awrq8H0JJblZVTlvvqXh-5" value="module-security" style="shape=folder;fontStyle=1;spacingTop=10;tabWidth=40;tabHeight=14;tabPosition=left;html=1;" vertex="1" parent="1">
          <mxGeometry x="500" y="107" width="134" height="50" as="geometry" />
        </mxCell>
        <mxCell id="awrq8H0JJblZVTlvvqXh-6" value="module-port-group" style="shape=folder;fontStyle=1;spacingTop=10;tabWidth=40;tabHeight=14;tabPosition=left;html=1;" vertex="1" parent="1">
          <mxGeometry x="650" y="107" width="134" height="50" as="geometry" />
        </mxCell>
        <mxCell id="awrq8H0JJblZVTlvvqXh-7" value="module-virtual-switch" style="shape=folder;fontStyle=1;spacingTop=10;tabWidth=40;tabHeight=14;tabPosition=left;html=1;" vertex="1" parent="1">
          <mxGeometry x="199" y="180" width="134" height="50" as="geometry" />
        </mxCell>
        <mxCell id="awrq8H0JJblZVTlvvqXh-8" value="module-network" style="shape=folder;fontStyle=1;spacingTop=10;tabWidth=40;tabHeight=14;tabPosition=left;html=1;" vertex="1" parent="1">
          <mxGeometry x="350" y="180" width="134" height="50" as="geometry" />
        </mxCell>
        <mxCell id="awrq8H0JJblZVTlvvqXh-9" value="module-storage" style="shape=folder;fontStyle=1;spacingTop=10;tabWidth=40;tabHeight=14;tabPosition=left;html=1;" vertex="1" parent="1">
          <mxGeometry x="500" y="180" width="134" height="50" as="geometry" />
        </mxCell>
        <mxCell id="awrq8H0JJblZVTlvvqXh-10" value="module-content" style="shape=folder;fontStyle=1;spacingTop=10;tabWidth=40;tabHeight=14;tabPosition=left;html=1;" vertex="1" parent="1">
          <mxGeometry x="650" y="180" width="134" height="50" as="geometry" />
        </mxCell>
        <mxCell id="awrq8H0JJblZVTlvvqXh-11" value="bavv-gi-op-terraform-vmware-configurarvm" style="shape=module;align=left;spacingLeft=20;align=center;verticalAlign=top;" vertex="1" parent="1">
          <mxGeometry x="150" y="320" width="667" height="160" as="geometry" />
        </mxCell>
        <mxCell id="awrq8H0JJblZVTlvvqXh-12" value="addon" style="shape=folder;fontStyle=1;spacingTop=10;tabWidth=40;tabHeight=14;tabPosition=left;html=1;verticalAlign=top;" vertex="1" parent="1">
          <mxGeometry x="178" y="347" width="625" height="113" as="geometry" />
        </mxCell>
        <mxCell id="awrq8H0JJblZVTlvvqXh-13" value="module-windows" style="shape=folder;fontStyle=1;spacingTop=10;tabWidth=40;tabHeight=14;tabPosition=left;html=1;" vertex="1" parent="1">
          <mxGeometry x="199" y="387" width="181" height="50" as="geometry" />
        </mxCell>
        <mxCell id="awrq8H0JJblZVTlvvqXh-14" value="module-redhat" style="shape=folder;fontStyle=1;spacingTop=10;tabWidth=40;tabHeight=14;tabPosition=left;html=1;" vertex="1" parent="1">
          <mxGeometry x="400" y="387" width="180" height="50" as="geometry" />
        </mxCell>
        <mxCell id="awrq8H0JJblZVTlvvqXh-15" value="module-suse" style="shape=folder;fontStyle=1;spacingTop=10;tabWidth=40;tabHeight=14;tabPosition=left;html=1;" vertex="1" parent="1">
          <mxGeometry x="600" y="387" width="184" height="50" as="geometry" />
        </mxCell>
        <mxCell id="awrq8H0JJblZVTlvvqXh-22" value="bavv-gi-op-terraform-vmware-configurarvnic" style="shape=module;align=left;spacingLeft=20;align=center;verticalAlign=top;" vertex="1" parent="1">
          <mxGeometry x="150" y="520" width="330" height="50" as="geometry" />
        </mxCell>
        <mxCell id="awrq8H0JJblZVTlvvqXh-23" value="bavv-gi-op-terraform-vmware-configurarespool" style="shape=module;align=left;spacingLeft=20;align=center;verticalAlign=top;" vertex="1" parent="1">
          <mxGeometry x="487" y="520" width="330" height="50" as="geometry" />
        </mxCell>
        <mxCell id="awrq8H0JJblZVTlvvqXh-24" value="bavv-gi-op-terraform-vmware-configurarhost" style="shape=module;align=left;spacingLeft=20;align=center;verticalAlign=top;" vertex="1" parent="1">
          <mxGeometry x="150" y="590" width="330" height="50" as="geometry" />
        </mxCell>
        <mxCell id="awrq8H0JJblZVTlvvqXh-25" value="bavv-gi-op-terraform-vmware-configurarha" style="shape=module;align=left;spacingLeft=20;align=center;verticalAlign=top;" vertex="1" parent="1">
          <mxGeometry x="487" y="590" width="330" height="50" as="geometry" />
        </mxCell>
        <mxCell id="awrq8H0JJblZVTlvvqXh-26" value="bavv-gi-op-terraform-vmware-configurardrs" style="shape=module;align=left;spacingLeft=20;align=center;verticalAlign=top;" vertex="1" parent="1">
          <mxGeometry x="150" y="660" width="330" height="50" as="geometry" />
        </mxCell>
        <mxCell id="awrq8H0JJblZVTlvvqXh-27" value="bavv-gi-op-terraform-vmware-configurardmp" style="shape=module;align=left;spacingLeft=20;align=center;verticalAlign=top;" vertex="1" parent="1">
          <mxGeometry x="487" y="660" width="330" height="50" as="geometry" />
        </mxCell>
        <mxCell id="awrq8H0JJblZVTlvvqXh-29" value="bavv-gi-cl-terraform-azure-configurarvm" style="shape=module;align=left;spacingLeft=20;align=center;verticalAlign=top;" vertex="1" parent="1">
          <mxGeometry x="150" y="880" width="667" height="230" as="geometry" />
        </mxCell>
        <mxCell id="awrq8H0JJblZVTlvvqXh-30" value="addon" style="shape=folder;fontStyle=1;spacingTop=10;tabWidth=40;tabHeight=14;tabPosition=left;html=1;verticalAlign=top;" vertex="1" parent="1">
          <mxGeometry x="178" y="907" width="625" height="183" as="geometry" />
        </mxCell>
        <mxCell id="awrq8H0JJblZVTlvvqXh-31" value="module-rg" style="shape=folder;fontStyle=1;spacingTop=10;tabWidth=40;tabHeight=14;tabPosition=left;html=1;" vertex="1" parent="1">
          <mxGeometry x="199" y="947" width="134" height="50" as="geometry" />
        </mxCell>
        <mxCell id="awrq8H0JJblZVTlvvqXh-32" value="module-ns" style="shape=folder;fontStyle=1;spacingTop=10;tabWidth=40;tabHeight=14;tabPosition=left;html=1;" vertex="1" parent="1">
          <mxGeometry x="350" y="947" width="134" height="50" as="geometry" />
        </mxCell>
        <mxCell id="awrq8H0JJblZVTlvvqXh-33" value="module-publicip" style="shape=folder;fontStyle=1;spacingTop=10;tabWidth=40;tabHeight=14;tabPosition=left;html=1;" vertex="1" parent="1">
          <mxGeometry x="500" y="947" width="134" height="50" as="geometry" />
        </mxCell>
        <mxCell id="awrq8H0JJblZVTlvvqXh-34" value="module-redhat" style="shape=folder;fontStyle=1;spacingTop=10;tabWidth=40;tabHeight=14;tabPosition=left;html=1;" vertex="1" parent="1">
          <mxGeometry x="650" y="947" width="134" height="50" as="geometry" />
        </mxCell>
        <mxCell id="awrq8H0JJblZVTlvvqXh-35" value="module-vnet" style="shape=folder;fontStyle=1;spacingTop=10;tabWidth=40;tabHeight=14;tabPosition=left;html=1;" vertex="1" parent="1">
          <mxGeometry x="199" y="1020" width="134" height="50" as="geometry" />
        </mxCell>
        <mxCell id="awrq8H0JJblZVTlvvqXh-36" value="module-windows" style="shape=folder;fontStyle=1;spacingTop=10;tabWidth=40;tabHeight=14;tabPosition=left;html=1;" vertex="1" parent="1">
          <mxGeometry x="350" y="1020" width="134" height="50" as="geometry" />
        </mxCell>
        <mxCell id="awrq8H0JJblZVTlvvqXh-39" value="bavv-gi-cl-terraform-azure-configuraraks" style="shape=module;align=left;spacingLeft=20;align=center;verticalAlign=top;" vertex="1" parent="1">
          <mxGeometry x="150" y="1140" width="667" height="230" as="geometry" />
        </mxCell>
        <mxCell id="awrq8H0JJblZVTlvvqXh-40" value="addon" style="shape=folder;fontStyle=1;spacingTop=10;tabWidth=40;tabHeight=14;tabPosition=left;html=1;verticalAlign=top;" vertex="1" parent="1">
          <mxGeometry x="178" y="1167" width="625" height="183" as="geometry" />
        </mxCell>
        <mxCell id="awrq8H0JJblZVTlvvqXh-41" value="module-aad" style="shape=folder;fontStyle=1;spacingTop=10;tabWidth=40;tabHeight=14;tabPosition=left;html=1;" vertex="1" parent="1">
          <mxGeometry x="199" y="1207" width="134" height="50" as="geometry" />
        </mxCell>
        <mxCell id="awrq8H0JJblZVTlvvqXh-42" value="module-svcon" style="shape=folder;fontStyle=1;spacingTop=10;tabWidth=40;tabHeight=14;tabPosition=left;html=1;" vertex="1" parent="1">
          <mxGeometry x="350" y="1207" width="134" height="50" as="geometry" />
        </mxCell>
        <mxCell id="awrq8H0JJblZVTlvvqXh-43" value="module-rbac" style="shape=folder;fontStyle=1;spacingTop=10;tabWidth=40;tabHeight=14;tabPosition=left;html=1;" vertex="1" parent="1">
          <mxGeometry x="500" y="1207" width="134" height="50" as="geometry" />
        </mxCell>
        <mxCell id="awrq8H0JJblZVTlvvqXh-44" value="module-secrets" style="shape=folder;fontStyle=1;spacingTop=10;tabWidth=40;tabHeight=14;tabPosition=left;html=1;" vertex="1" parent="1">
          <mxGeometry x="650" y="1207" width="134" height="50" as="geometry" />
        </mxCell>
        <mxCell id="awrq8H0JJblZVTlvvqXh-45" value="module-namespace" style="shape=folder;fontStyle=1;spacingTop=10;tabWidth=40;tabHeight=14;tabPosition=left;html=1;" vertex="1" parent="1">
          <mxGeometry x="199" y="1280" width="134" height="50" as="geometry" />
        </mxCell>
        <mxCell id="awrq8H0JJblZVTlvvqXh-46" value="module-ingress" style="shape=folder;fontStyle=1;spacingTop=10;tabWidth=40;tabHeight=14;tabPosition=left;html=1;" vertex="1" parent="1">
          <mxGeometry x="350" y="1280" width="134" height="50" as="geometry" />
        </mxCell>
        <mxCell id="awrq8H0JJblZVTlvvqXh-47" value="module-dns" style="shape=folder;fontStyle=1;spacingTop=10;tabWidth=40;tabHeight=14;tabPosition=left;html=1;" vertex="1" parent="1">
          <mxGeometry x="500" y="1280" width="134" height="50" as="geometry" />
        </mxCell>
        <mxCell id="awrq8H0JJblZVTlvvqXh-48" value="bavv-gi-cl-terraform-azure-configurarfapp" style="shape=module;align=left;spacingLeft=20;align=center;verticalAlign=top;" vertex="1" parent="1">
          <mxGeometry x="150" y="1400" width="330" height="50" as="geometry" />
        </mxCell>
        <mxCell id="awrq8H0JJblZVTlvvqXh-49" value="bavv-gi-cl-terraform-azure-configurarfrontdoor" style="shape=module;align=left;spacingLeft=20;align=center;verticalAlign=top;" vertex="1" parent="1">
          <mxGeometry x="487" y="1400" width="330" height="50" as="geometry" />
        </mxCell>
        <mxCell id="awrq8H0JJblZVTlvvqXh-50" value="bavv-gi-cl-terraform-azure-configurarkeyvault" style="shape=module;align=left;spacingLeft=20;align=center;verticalAlign=top;" vertex="1" parent="1">
          <mxGeometry x="150" y="1470" width="330" height="50" as="geometry" />
        </mxCell>
        <mxCell id="awrq8H0JJblZVTlvvqXh-51" value="bavv-gi-cl-terraform-azure-configurarapim" style="shape=module;align=left;spacingLeft=20;align=center;verticalAlign=top;" vertex="1" parent="1">
          <mxGeometry x="487" y="1470" width="330" height="50" as="geometry" />
        </mxCell>
        <mxCell id="awrq8H0JJblZVTlvvqXh-52" value="bavv-gi-cl-terraform-azure-configurargateway" style="shape=module;align=left;spacingLeft=20;align=center;verticalAlign=top;" vertex="1" parent="1">
          <mxGeometry x="150" y="1540" width="330" height="50" as="geometry" />
        </mxCell>
        <mxCell id="awrq8H0JJblZVTlvvqXh-53" value="bavv-gi-cl-terraform-azure-configurardns" style="shape=module;align=left;spacingLeft=20;align=center;verticalAlign=top;" vertex="1" parent="1">
          <mxGeometry x="487" y="1540" width="330" height="50" as="geometry" />
        </mxCell>
        <mxCell id="awrq8H0JJblZVTlvvqXh-54" value="bavv-gi-cl-terraform-azure-configurardatadog" style="shape=module;align=left;spacingLeft=20;align=center;verticalAlign=top;" vertex="1" parent="1">
          <mxGeometry x="150" y="1610" width="330" height="50" as="geometry" />
        </mxCell>
        <mxCell id="awrq8H0JJblZVTlvvqXh-55" value="bavv-gi-cl-terraform-azure-configurarredis" style="shape=module;align=left;spacingLeft=20;align=center;verticalAlign=top;" vertex="1" parent="1">
          <mxGeometry x="487" y="1610" width="330" height="50" as="geometry" />
        </mxCell>
        <mxCell id="awrq8H0JJblZVTlvvqXh-56" value="bavv-gi-cl-terraform-azure-configurarsql" style="shape=module;align=left;spacingLeft=20;align=center;verticalAlign=top;" vertex="1" parent="1">
          <mxGeometry x="150" y="1680" width="330" height="50" as="geometry" />
        </mxCell>
        <mxCell id="awrq8H0JJblZVTlvvqXh-57" value="bavv-gi-cl-terraform-azure-configurarstorage" style="shape=module;align=left;spacingLeft=20;align=center;verticalAlign=top;" vertex="1" parent="1">
          <mxGeometry x="487" y="1680" width="330" height="50" as="geometry" />
        </mxCell>
        <mxCell id="awrq8H0JJblZVTlvvqXh-60" value="bavv-gi-op-jenkins-pipelines-fachada" style="shape=module;align=left;spacingLeft=20;align=center;verticalAlign=top;" vertex="1" parent="1">
          <mxGeometry x="150" y="1800" width="330" height="50" as="geometry" />
        </mxCell>
        <mxCell id="awrq8H0JJblZVTlvvqXh-61" value="bavv-gi-cl-jenkins-pipelines-fachada" style="shape=module;align=left;spacingLeft=20;align=center;verticalAlign=top;" vertex="1" parent="1">
          <mxGeometry x="487" y="1800" width="330" height="50" as="geometry" />
        </mxCell>
      </root>
    </mxGraphModel>
  </diagram>
</mxfile>
